<?xml version="1.0" encoding="UTF-8"?><svg id="Layer_1" xmlns="http://www.w3.org/2000/svg" viewBox="0 0 720 147.06"><defs><style>.cls-1{fill:#0d9a49;}.cls-2{fill:#0e7155;}</style></defs><g><path class="cls-2" d="M12.51,51.01l40.41,20.4,33.92-13.77c.26-.11,.49-.25,.69-.41,.99-.82,1.19-2.25,.57-3.32-.25-.42-.63-.79-1.14-1.03L14.71,18.97l-3.61,29.41c-.13,1.09,.43,2.14,1.41,2.63Z"/><path class="cls-1" d="M96.85,96.72l-3.86-36.03c.08,2.81-6.66,5.62-6.66,5.62h0L8.49,98.32c-1.92,.79-3.26,2.57-3.5,4.63l-1.13,9.98L0,146.88l93.62-44.41c2.19-1.04,3.48-3.34,3.23-5.75Z"/><path class="cls-1" d="M32.24,19.01c.19,.19,.42,.35,.67,.46l32.52,15.19s.08,.03,.13,.05c.33,.13,.69,.2,1.05,.18,.13,0,.27-.02,.4-.05,0,0,18.79-4.05,19.51-4.21,1.07-.23,2.16-.38,2.8-1.39,.52-.83,.35-1.72,.26-2.63L87.21,.18,33.31,14.83c-1.13,.31-1.89,1.37-1.83,2.54,.03,.62,.32,1.21,.76,1.64Z"/></g><g><path d="M153.03,98.12c-5.53-2.36-9.91-5.77-13.13-10.22-3.22-4.45-4.87-9.7-4.97-15.75h21.29c.28,4.07,1.73,7.29,4.33,9.65,2.6,2.37,6.17,3.55,10.72,3.55s8.28-1.11,10.93-3.34c2.65-2.22,3.97-5.13,3.97-8.73,0-2.93-.9-5.34-2.7-7.24-1.8-1.89-4.04-3.38-6.74-4.47-2.7-1.09-6.41-2.29-11.14-3.62-6.44-1.89-11.66-3.76-15.68-5.61-4.02-1.84-7.48-4.63-10.36-8.37-2.89-3.74-4.33-8.73-4.33-14.97,0-5.87,1.47-10.98,4.4-15.33,2.93-4.35,7.05-7.69,12.35-10.01,5.3-2.32,11.36-3.48,18.17-3.48,10.22,0,18.52,2.48,24.91,7.45,6.39,4.97,9.91,11.9,10.57,20.79h-21.86c-.19-3.41-1.63-6.22-4.33-8.44-2.7-2.22-6.27-3.34-10.72-3.34-3.88,0-6.98,.99-9.3,2.98-2.32,1.99-3.48,4.87-3.48,8.66,0,2.65,.87,4.85,2.63,6.6,1.75,1.75,3.93,3.17,6.53,4.26,2.6,1.09,6.27,2.34,11,3.76,6.43,1.89,11.69,3.79,15.76,5.68,4.07,1.89,7.57,4.73,10.5,8.52,2.93,3.79,4.4,8.75,4.4,14.9,0,5.3-1.37,10.22-4.12,14.76-2.75,4.54-6.77,8.16-12.06,10.86-5.3,2.7-11.59,4.05-18.88,4.05-6.91,0-13.13-1.18-18.67-3.55Z"/><path d="M299.16,22.04l-48.68,115.82h-21.15l17.03-39.17-31.51-76.65h22.28l20.3,54.93,20.58-54.93h21.15Z"/><path d="M376.09,29.77c5.77,5.92,8.66,14.17,8.66,24.77v46.13h-19.87V57.24c0-6.25-1.56-11.05-4.68-14.41-3.12-3.36-7.38-5.04-12.77-5.04s-9.82,1.68-12.99,5.04c-3.17,3.36-4.76,8.16-4.76,14.41v43.43h-19.87V22.04h19.87v9.79c2.65-3.41,6.03-6.08,10.15-8.02,4.12-1.94,8.63-2.91,13.56-2.91,9.37,0,16.94,2.96,22.71,8.87Z"/><path d="M476.15,67.32h-57.48c.47,5.68,2.46,10.13,5.96,13.34,3.5,3.22,7.81,4.82,12.92,4.82,7.38,0,12.63-3.17,15.76-9.51h21.43c-2.27,7.57-6.62,13.79-13.06,18.66-6.43,4.88-14.33,7.31-23.7,7.31-7.57,0-14.36-1.68-20.37-5.04-6.01-3.36-10.69-8.11-14.05-14.27-3.36-6.15-5.04-13.25-5.04-21.29s1.65-15.28,4.97-21.43c3.31-6.15,7.95-10.88,13.91-14.19,5.96-3.31,12.82-4.97,20.58-4.97s14.17,1.61,20.09,4.82c5.91,3.22,10.5,7.78,13.77,13.7,3.26,5.92,4.9,12.7,4.9,20.37,0,2.84-.19,5.39-.57,7.66Zm-20.01-13.34c-.1-5.11-1.94-9.2-5.53-12.28-3.6-3.08-8-4.61-13.2-4.61-4.92,0-9.06,1.49-12.42,4.47-3.36,2.98-5.42,7.12-6.18,12.42h37.33Z"/><path d="M521.07,24.45c4.12-2.36,8.82-3.55,14.12-3.55v20.87h-5.25c-6.24,0-10.95,1.47-14.12,4.4-3.17,2.93-4.75,8.04-4.75,15.33v39.17h-19.87V22.04h19.87v12.21c2.55-4.16,5.89-7.43,10-9.8Z"/><path d="M594.81,24.24c4.45,2.32,7.95,5.32,10.5,9.01v-11.21h20.01V101.24c0,7.28-1.47,13.79-4.4,19.52-2.93,5.72-7.33,10.27-13.2,13.63-5.87,3.36-12.97,5.04-21.29,5.04-11.17,0-20.32-2.6-27.47-7.81-7.15-5.2-11.19-12.3-12.14-21.29h19.73c1.04,3.6,3.29,6.46,6.74,8.59,3.45,2.13,7.64,3.19,12.56,3.19,5.77,0,10.46-1.73,14.05-5.18,3.6-3.46,5.39-8.68,5.39-15.68v-12.21c-2.55,3.69-6.08,6.77-10.57,9.23-4.49,2.46-9.63,3.69-15.4,3.69-6.63,0-12.68-1.7-18.17-5.11-5.49-3.41-9.82-8.21-12.99-14.41-3.17-6.2-4.76-13.32-4.76-21.36s1.58-15,4.76-21.15c3.17-6.15,7.47-10.88,12.92-14.19,5.44-3.31,11.52-4.97,18.24-4.97,5.86,0,11.02,1.16,15.47,3.48Zm7.66,24.7c-1.89-3.45-4.45-6.1-7.66-7.95-3.22-1.85-6.67-2.77-10.36-2.77s-7.1,.9-10.22,2.7c-3.12,1.8-5.66,4.42-7.59,7.88-1.94,3.46-2.91,7.55-2.91,12.28s.97,8.87,2.91,12.42c1.94,3.55,4.49,6.27,7.66,8.16,3.17,1.89,6.55,2.84,10.15,2.84s7.14-.92,10.36-2.77c3.22-1.85,5.77-4.49,7.66-7.95,1.89-3.45,2.84-7.59,2.84-12.42s-.95-8.96-2.84-12.42Z"/><path d="M720,22.04l-48.68,115.82h-21.15l17.03-39.17-31.51-76.65h22.28l20.3,54.93,20.58-54.93h21.15Z"/></g></svg>